<?xml version="1.0" encoding="UTF-8"?>
<svg xmlns="http://www.w3.org/2000/svg" viewBox="0 0 240 64" role="img" aria-label="Infinite Recall">
  <title>Infinite Recall</title>
  <defs>
    <linearGradient id="wm-bg" x1="0" y1="0" x2="0" y2="1">
      <stop offset="0" stop-color="#5B3CFF"/>
      <stop offset="1" stop-color="#2B1B8B"/>
    </linearGradient>
    <style>
      .wm { font-family: -apple-system, BlinkMacSystemFont, "SF Pro Display", "Helvetica Neue", system-ui, sans-serif;
            font-weight: 600;
            font-size: 26px;
            letter-spacing: -0.5px;
            fill: #1A1240; }
    </style>
  </defs>
  <!-- Icon glyph on the left -->
  <g transform="translate(4 4)">
    <rect width="56" height="56" rx="13" ry="13" fill="url(#wm-bg)"/>
    <g transform="translate(28 28)">
      <path d="M 0 0
               C 0 -7.2, 5.5 -11.2, 11 -11.2
               C 17.1 -11.2, 21.5 -6.6, 21.5 0
               C 21.5 6.6, 17.1 11.2, 11 11.2
               C 5.5 11.2, 0 7.2, 0 0
               C 0 -7.2, -5.5 -11.2, -11 -11.2
               C -17.1 -11.2, -21.5 -6.6, -21.5 0
               C -21.5 6.6, -17.1 11.2, -11 11.2
               C -5.5 11.2, 0 7.2, 0 0 Z"
            fill="none"
            stroke="#FFFFFF"
            stroke-width="5.6"
            stroke-linecap="round"
            stroke-linejoin="round"/>
      <circle cx="11" cy="0" r="1.8" fill="#FF4D4D"/>
    </g>
  </g>
  <text class="wm" x="72" y="40">Infinite Recall</text>
</svg>
